# xmcd
#
# Track frame offsets: 
#        150
#        27484
#        49045
#        72248
#        102778
#        116680
#        145334
#        169605
#        193834
#        214815
#        236451
#        260819
#
# Disc length: 3787 seconds
#
# Revision: 0
# Processed by: cddbd v1.5.2PL0 Copyright (c) Steve Scherf et al.
# Submitted via: ExactAudioCopyFreeDBPlugin 1.0
#
DISCID=b20ec90c
DTITLE=Willis Earl Beal - Noctunes
DYEAR=2015
DGENRE=Blues
TTITLE0=Under You
TTITLE1=Flying So Low (Remix)
TTITLE2=Like A Box (Remix)
TTITLE3=Lust
TTITLE4=No Solution
TTITLE5=Stay. (Remix)
TTITLE6=Say The Words. (Remix)
TTITLE7=Love Is All Around.
TTITLE8=Able To Wait
TTITLE9=Survive
TTITLE10=Start Over
TTITLE11=1-2 Midnight
EXTD=
EXTT0=
EXTT1=
EXTT2=
EXTT3=
EXTT4=
EXTT5=
EXTT6=
EXTT7=
EXTT8=
EXTT9=
EXTT10=
EXTT11=
PLAYORDER=
